<?xml version="1.0" encoding="UTF-8"?>
<svg xmlns="http://www.w3.org/2000/svg" width="800" height="450" viewBox="0 0 800 450" role="img" aria-label="Encontro Comunitário em Laois">
  <defs>
    <linearGradient id="bg" x1="0%" y1="0%" x2="100%" y2="100%">
      <stop offset="0%" stop-color="hsla(148,77%,44%,0.92)"/>
      <stop offset="55%" stop-color="#0E6B3A"/>
      <stop offset="100%" stop-color="#0B1120"/>
    </linearGradient>
    <radialGradient id="glow" cx="75%" cy="20%" r="60%">
      <stop offset="0%" stop-color="#FFFBEB" stop-opacity="0.35"/>
      <stop offset="100%" stop-color="#FFFBEB" stop-opacity="0"/>
    </radialGradient>
    <pattern id="dots" width="28" height="28" patternUnits="userSpaceOnUse">
      <circle cx="2" cy="2" r="1.2" fill="#FFFBEB" fill-opacity="0.18"/>
    </pattern>
  </defs>
  <rect width="800" height="450" fill="url(#bg)"/>
  <rect width="800" height="450" fill="url(#dots)"/>
  <rect width="800" height="450" fill="url(#glow)"/>
  <circle cx="680" cy="80" r="150" fill="#FFFBEB" fill-opacity="0.08"/>
  <circle cx="120" cy="400" r="180" fill="#FFFBEB" fill-opacity="0.06"/>
  <g transform="translate(56 56)">
    <circle cx="40" cy="40" r="40" fill="#FFFBEB" fill-opacity="0.18"/>
    <g transform="translate(16 16)" fill="none" stroke="#FFFFFF" stroke-width="3.2" stroke-linecap="round" stroke-linejoin="round">
      <path d="M17 21v-2a4 4 0 0 0-4-4H5a4 4 0 0 0-4 4v2"/><circle cx="9" cy="7" r="4"/><path d="M23 21v-2a4 4 0 0 0-3-3.87"/><path d="M16 3.13a4 4 0 0 1 0 7.75"/>
    </g>
  </g>
  <text x="56" y="190" font-family="Inter, Arial, sans-serif" font-size="15" font-weight="700" letter-spacing="3" fill="#FFFBEB" fill-opacity="0.85">Comunidade</text>
  <text x="56" y="250" font-family="Poppins, Arial, sans-serif" font-size="34" font-weight="700" fill="#FFFFFF">ENCONTRO COMUNITÁRIO EM LAOI…</text>
  <text x="56" y="300" font-family="Inter, Arial, sans-serif" font-size="18" fill="#FFFFFF" fill-opacity="0.9">31 Aug 2026</text>
  <text x="56" y="408" font-family="Inter, Arial, sans-serif" font-size="13" letter-spacing="2" fill="#FFFFFF" fill-opacity="0.65">CONEXÃO BR IRLANDA</text>
  <line x1="56" y1="372" x2="304" y2="372" stroke="#FFFBEB" stroke-width="3" stroke-opacity="0.8"/>
</svg>
